<svg width="21" height="21" viewBox="0 0 21 21" fill="none" xmlns="http://www.w3.org/2000/svg">
<path fill-rule="evenodd" clip-rule="evenodd" d="M19.5858 4.08573C20.3668 4.86678 20.3668 6.13311 19.5858 6.91416L7.41421 19.0857L1.98355 20.1965C1.44246 20.3072 0.91411 19.9583 0.80344 19.4172C0.7764 19.2849 0.7764 19.1486 0.80344 19.0164L1.91421 13.5857L14.0858 1.41416C14.8668 0.63311 16.1332 0.63311 16.9142 1.41416L19.5858 4.08573ZM11.9926 6.33573L14.6642 9.0073L6.42483 17.2467L3.06631 17.9336L3.75325 14.5751L11.9926 6.33573ZM15.5 2.82837L13.4069 4.92151L16.0784 7.59309L18.1716 5.49994L15.5 2.82837Z" fill="#050038"/>
</svg>
